<?xml version="1.0" encoding="UTF-8" standalone="no"?>
<!-- Generator: Adobe Illustrator 19.0.0, SVG Export Plug-In . SVG Version: 6.00 Build 0)  -->

<svg
   version="1.1"
   id="Layer_1"
   x="0px"
   y="0px"
   viewBox="0 0 512 512"
   style="enable-background:new 0 0 512 512;"
   xml:space="preserve"
   sodipodi:docname="trash-opened.svg"
   inkscape:version="1.1.1 (3bf5ae0d25, 2021-09-20)"
   xmlns:inkscape="http://www.inkscape.org/namespaces/inkscape"
   xmlns:sodipodi="http://sodipodi.sourceforge.net/DTD/sodipodi-0.dtd"
   xmlns="http://www.w3.org/2000/svg"
   xmlns:svg="http://www.w3.org/2000/svg"><defs
   id="defs45" /><sodipodi:namedview
   id="namedview43"
   pagecolor="#505050"
   bordercolor="#eeeeee"
   borderopacity="1"
   inkscape:pageshadow="0"
   inkscape:pageopacity="0"
   inkscape:pagecheckerboard="0"
   showgrid="false"
   inkscape:snap-smooth-nodes="true"
   inkscape:object-paths="true"
   inkscape:zoom="1.625"
   inkscape:cx="255.69231"
   inkscape:cy="256.30769"
   inkscape:window-width="1920"
   inkscape:window-height="1017"
   inkscape:window-x="-8"
   inkscape:window-y="-8"
   inkscape:window-maximized="1"
   inkscape:current-layer="Layer_1" />
<path
   style="fill:#000000"
   d="M334.885,98.803c-1.182,0-2.381-0.142-3.579-0.439c-7.951-1.97-12.801-10.013-10.83-17.965  l5.66-22.846l-99.892-24.752l-5.662,22.846c-1.97,7.951-10.021,12.801-17.965,10.83c-7.951-1.97-12.801-10.014-10.83-17.965  l9.229-37.244c1.97-7.952,10.02-12.8,17.965-10.83L347.67,32.325c3.818,0.946,7.105,3.369,9.136,6.739  c2.031,3.37,2.64,7.408,1.694,11.226l-9.229,37.245C347.597,94.288,341.542,98.803,334.885,98.803z"
   id="path2" />

<path
   style="fill:#000000"
   d="M 445.095,146.789 74.039,54.848 c -7.945,-1.971 -15.995,2.876 -17.965,10.83 -1.971,7.952 2.878,15.995 10.83,17.965 l 222.414,55.11 h -111.36 -6.349 -86.074 c -4.131,0 -8.075,1.724 -10.883,4.754 -2.808,3.032 -4.223,7.096 -3.907,11.217 l 26.412,343.581 c 0.593,7.728 7.038,13.696 14.79,13.696 h 66.011 116.21 c 8.191,0 14.833,-6.642 14.833,-14.833 0,-8.191 -6.642,-14.833 -14.833,-14.833 H 192.791 V 168.419 h 88.169 v 328.747 c 0,8.191 6.642,14.833 14.833,14.833 h 66.01 c 7.752,0 14.196,-5.967 14.79,-13.696 l 25.491,-331.609 35.874,8.89 c 1.199,0.297 2.397,0.439 3.579,0.439 6.657,0 12.712,-4.515 14.385,-11.269 1.975,-7.952 -2.874,-15.995 -10.827,-17.965 z m -343.543,21.63 h 61.573 V 482.333 H 125.683 Z M 348.068,482.333 H 310.629 V 168.419 H 372.2 Z"
   id="path10"
   sodipodi:nodetypes="cccccccscccscssscccssscccscccccccccccc" />
<g
   id="g12">
</g>
<g
   id="g14">
</g>
<g
   id="g16">
</g>
<g
   id="g18">
</g>
<g
   id="g20">
</g>
<g
   id="g22">
</g>
<g
   id="g24">
</g>
<g
   id="g26">
</g>
<g
   id="g28">
</g>
<g
   id="g30">
</g>
<g
   id="g32">
</g>
<g
   id="g34">
</g>
<g
   id="g36">
</g>
<g
   id="g38">
</g>
<g
   id="g40">
</g>
</svg>
