<?xml version="1.0" encoding="UTF-8" standalone="no"?>
<svg
   viewBox="0 0 183.05855 246.47995"
   height="246.47995"
   width="183.05855"
   xml:space="preserve"
   id="svg2"
   version="1.1"
   inkscape:version="1.1 (c68e22c387, 2021-05-23)"
   sodipodi:docname="Escudo_de_Santa_Fe.svg"
   xmlns:inkscape="http://www.inkscape.org/namespaces/inkscape"
   xmlns:sodipodi="http://sodipodi.sourceforge.net/DTD/sodipodi-0.dtd"
   xmlns="http://www.w3.org/2000/svg"
   xmlns:svg="http://www.w3.org/2000/svg"
   xmlns:rdf="http://www.w3.org/1999/02/22-rdf-syntax-ns#"
   xmlns:cc="http://creativecommons.org/ns#"
   xmlns:dc="http://purl.org/dc/elements/1.1/"><sodipodi:namedview
     pagecolor="#ffffff"
     bordercolor="#666666"
     borderopacity="1"
     objecttolerance="10"
     gridtolerance="10"
     guidetolerance="10"
     inkscape:pageopacity="0"
     inkscape:pageshadow="2"
     inkscape:window-width="1366"
     inkscape:window-height="705"
     id="namedview3483"
     showgrid="false"
     fit-margin-top="0"
     fit-margin-left="0"
     fit-margin-right="0"
     fit-margin-bottom="0"
     inkscape:zoom="0.51224229"
     inkscape:cx="-133.72578"
     inkscape:cy="-10.737106"
     inkscape:window-x="-8"
     inkscape:window-y="-8"
     inkscape:window-maximized="1"
     inkscape:current-layer="g12"
     inkscape:pagecheckerboard="0" /><metadata
     id="metadata8"><rdf:RDF><cc:Work
         rdf:about=""><dc:format>image/svg+xml</dc:format><dc:type
           rdf:resource="http://purl.org/dc/dcmitype/StillImage" /><dc:title /></cc:Work></rdf:RDF></metadata><defs
     id="defs6" /><g
     transform="matrix(1.3333333,0,0,-1.3333333,-40.784897,248.90577)"
     id="g10"><g
       transform="matrix(0.1,0,0,0.1,28.267409,35.943426)"
       id="g12"><g
         style="fill-rule:evenodd"
         id="g3835"
         transform="matrix(3.7377912,0,0,-3.7318779,23.676178,1507.0137)"><g
           transform="matrix(0.80065262,0,0,0.81398345,-315.47871,-29.835981)"
           id="g4"
           style="fill-rule:evenodd"><g
             transform="translate(315.35724,-100.12107)"
             id="g6"><g
               id="g180034"><path
                 id="path34"
                 style="fill:#231f20;fill-opacity:1;fill-rule:evenodd;stroke:none"
                 d="m 230.56513,728.79936 c 0,362.59004 212.981,656.52004 475.703,656.52004 262.721,0 475.69097,-293.93 475.69097,-656.52004 0,-362.587 -212.96997,-656.516999 -475.69097,-656.516999 -262.722,0 -475.703,293.929999 -475.703,656.516999 v 0"
                 inkscape:connector-curvature="0"
                 transform="matrix(0.33414951,0,0,-0.32919786,70.758327,632.88103)" /><path
                 id="path36"
                 style="fill:#f5f2ef;fill-opacity:1;fill-rule:evenodd;stroke:none"
                 d="m 239.26413,728.79936 0.121,15.01 h 933.76397 l 0.12,-15.01 c 0,-357.892 -209.07997,-648.008999 -467.00097,-648.008999 -257.926,0 -467.004,290.116999 -467.004,648.008999 v 0"
                 inkscape:connector-curvature="0"
                 transform="matrix(0.33414951,0,0,-0.32919786,70.758327,632.88103)" /><path
                 id="path38"
                 style="fill:#80a4e6;fill-opacity:1;fill-rule:evenodd;stroke:none"
                 d="m 239.54913,751.75936 c 8.715,347.26004 214.329,625.05004 466.719,625.05004 252.371,0 457.99097,-277.79 466.71097,-625.05004 H 239.54913 v 0"
                 inkscape:connector-curvature="0"
                 transform="matrix(0.33414951,0,0,-0.32919786,70.758327,632.88103)" /><path
                 id="path40"
                 style="fill:#231f20;fill-opacity:1;fill-rule:evenodd;stroke:none"
                 d="m 754.53682,153.24723 -31.707,-23.039 12.117,-37.273999 -31.71104,23.038999 -31.719,-23.038999 12.118,37.273999 -31.707,23.039 h 39.191 l 12.117,37.269 12.106,-37.269 h 39.19504 v 0"
                 inkscape:connector-curvature="0"
                 transform="matrix(0.33414951,0,0,-0.32919786,70.758327,632.88103)" /><path
                 id="path42"
                 style="fill:#231f20;fill-opacity:1;fill-rule:evenodd;stroke:none"
                 d="m 502.35678,308.17223 -31.707,-23.035 12.106,-37.269 -31.699,23.031 -31.715,-23.035 12.109,37.273 -31.707,23.035 h 39.195 l 12.118,37.274 12.105,-37.274 h 39.195 v 0"
                 inkscape:connector-curvature="0"
                 transform="matrix(0.33414951,0,0,-0.32919786,70.758327,632.88103)" /><path
                 id="path44"
                 style="fill:#231f20;fill-opacity:1;fill-rule:evenodd;stroke:none"
                 d="m 600.13878,217.89523 -31.707,-23.035 12.117,-37.266 -31.711,23.035 -31.707,-23.043 12.113,37.274 -31.711,23.035 h 39.192 l 12.113,37.273 12.109,-37.273 h 39.192 v 0"
                 inkscape:connector-curvature="0"
                 transform="matrix(0.33414951,0,0,-0.32919786,70.758327,632.88103)" /><path
                 id="path46"
                 style="fill:#231f20;fill-opacity:1;fill-rule:evenodd;stroke:none"
                 d="m 806.31682,217.89523 31.71,-23.035 -12.11,-37.266 31.71,23.035 31.71,-23.043 -12.12,37.274 31.71,23.035 h -39.18 l -12.12,37.273 -12.11,-37.273 h -39.2 v 0"
                 inkscape:connector-curvature="0"
                 transform="matrix(0.33414951,0,0,-0.32919786,70.758327,632.88103)" /><path
                 id="path50"
                 style="fill:#231f20;fill-opacity:1;fill-rule:evenodd;stroke:none"
                 d="m 986.41602,498.66536 31.70998,-23.039 -12.11,-37.273 31.71,23.039 31.7,-23.039 -12.1,37.273 31.71,23.039 h -39.2 l -12.11,37.277 -12.11,-37.277 h -39.19998 v 0"
                 inkscape:connector-curvature="0"
                 transform="matrix(0.33414951,0,0,-0.32919786,70.758327,632.88103)" /><path
                 id="path52"
                 style="fill:#231f20;fill-opacity:1;fill-rule:evenodd;stroke:none"
                 d="m 1016.556,676.46936 31.71,-23.04 -12.12,-37.27 31.71,23.04 31.71,-23.04 -12.11,37.27 31.71,23.04 h -39.19 l -12.12,37.27 -12.1,-37.27 h -39.2 v 0"
                 inkscape:connector-curvature="0"
                 transform="matrix(0.33414951,0,0,-0.32919786,70.758327,632.88103)" /><path
                 id="path54"
                 style="fill:#231f20;fill-opacity:1;fill-rule:evenodd;stroke:none"
                 d="m 1016.646,863.10936 31.71,-23.03 -12.11,-37.28 31.71,23.04 31.71,-23.04 -12.12,37.28 31.71,23.03 h -39.19 l -12.11,37.27 -12.12,-37.27 h -39.19 v 0"
                 inkscape:connector-curvature="0"
                 transform="matrix(0.33414951,0,0,-0.32919786,70.758327,632.88103)" /><path
                 id="path56"
                 style="fill:#231f20;fill-opacity:1;fill-rule:evenodd;stroke:none"
                 d="m 996.89599,993.72936 31.71001,-23.04 -12.11,-37.27 31.71,23.03 31.71,-23.03 -12.12,37.27 31.71,23.04 h -39.2 l -12.1,37.27004 -12.11,-37.27004 h -39.20001 v 0"
                 inkscape:connector-curvature="0"
                 transform="matrix(0.33414951,0,0,-0.32919786,70.758327,632.88103)" /><path
                 id="path58"
                 style="fill:#231f20;fill-opacity:1;fill-rule:evenodd;stroke:none"
                 d="m 938.50602,1132.9294 31.71,-23.04 -12.12,-37.27 31.70997,23.03 31.71001,-23.03 -12.1,37.27 31.7,23.04 h -39.19 l -12.12001,37.27 -12.10997,-37.27 h -39.19 v 0"
                 inkscape:connector-curvature="0"
                 transform="matrix(0.33414951,0,0,-0.32919786,70.758327,632.88103)" /><path
                 id="path60"
                 style="fill:#231f20;fill-opacity:1;fill-rule:evenodd;stroke:none"
                 d="m 860.68602,1218.7194 31.72,-23.04 -12.12,-37.27 31.71,23.03 31.71,-23.03 -12.11,37.27 31.71,23.04 h -39.2 l -12.11,37.27 -12.11,-37.27 h -39.2 v 0"
                 inkscape:connector-curvature="0"
                 transform="matrix(0.33414951,0,0,-0.32919786,70.758327,632.88103)" /><path
                 id="path62"
                 style="fill:#231f20;fill-opacity:1;fill-rule:evenodd;stroke:none"
                 d="m 760.43602,1293.9694 31.71,-23.03 -12.11,-37.27 31.72,23.03 31.71,-23.03 -12.11,37.27 31.7,23.03 h -39.19 l -12.11,37.27 -12.12,-37.27 h -39.2 v 0"
                 inkscape:connector-curvature="0"
                 transform="matrix(0.33414951,0,0,-0.32919786,70.758327,632.88103)" /><path
                 id="path64"
                 style="fill:#231f20;fill-opacity:1;fill-rule:evenodd;stroke:none"
                 d="m 631.37602,1293.9694 -31.707,-23.03 12.117,-37.27 -31.711,23.03 -31.711,-23.03 12.11,37.27 -31.711,23.03 h 39.195 l 12.117,37.27 12.11,-37.27 h 39.191 v 0"
                 inkscape:connector-curvature="0"
                 transform="matrix(0.33414951,0,0,-0.32919786,70.758327,632.88103)" /><path
                 id="path66"
                 style="fill:#231f20;fill-opacity:1;fill-rule:evenodd;stroke:none"
                 d="m 531.13002,1218.7194 -31.707,-23.04 12.113,-37.27 -31.711,23.03 -31.707,-23.03 12.11,37.27 -31.711,23.04 h 39.195 l 12.113,37.27 12.114,-37.27 h 39.191 v 0"
                 inkscape:connector-curvature="0"
                 transform="matrix(0.33414951,0,0,-0.32919786,70.758327,632.88103)" /><path
                 id="path68"
                 style="fill:#231f20;fill-opacity:1;fill-rule:evenodd;stroke:none"
                 d="m 453.32102,1132.9294 -31.71,-23.04 12.117,-37.27 -31.719,23.03 -31.711,-23.03 12.117,37.27 -31.711,23.04 h 39.196 l 12.109,37.27 12.117,-37.27 h 39.195 v 0"
                 inkscape:connector-curvature="0"
                 transform="matrix(0.33414951,0,0,-0.32919786,70.758327,632.88103)" /><path
                 id="path70"
                 style="fill:#231f20;fill-opacity:1;fill-rule:evenodd;stroke:none"
                 d="m 394.93102,993.72936 -31.719,-23.04 12.117,-37.27 -31.711,23.03 -31.707,-23.03 12.114,37.27 -31.707,23.04 h 39.187 l 12.113,37.27004 12.121,-37.27004 h 39.192 v 0"
                 inkscape:connector-curvature="0"
                 transform="matrix(0.33414951,0,0,-0.32919786,70.758327,632.88103)" /><path
                 id="path72"
                 style="fill:#231f20;fill-opacity:1;fill-rule:evenodd;stroke:none"
                 d="m 375.26702,676.46936 -31.707,-23.04 12.117,-37.27 -31.711,23.04 -31.707,-23.04 12.105,37.27 -31.707,23.04 h 39.196 l 12.113,37.27 12.109,-37.27 h 39.192 v 0"
                 inkscape:connector-curvature="0"
                 transform="matrix(0.33414951,0,0,-0.32919786,70.758327,632.88103)" /><path
                 id="path74"
                 style="fill:#231f20;fill-opacity:1;fill-rule:evenodd;stroke:none"
                 d="m 405.40702,498.66536 -31.711,-23.039 12.118,-37.273 -31.719,23.039 -31.703,-23.039 12.113,37.273 -31.711,23.039 h 39.195 l 12.106,37.277 12.117,-37.277 h 39.195 v 0"
                 inkscape:connector-curvature="0"
                 transform="matrix(0.33414951,0,0,-0.32919786,70.758327,632.88103)" /><path
                 id="path76"
                 style="fill:#f1d55d;fill-opacity:1;fill-rule:evenodd;stroke:none"
                 d="m 617.01702,1289.7194 -22.836,-16.59 8.723,-26.83 -22.836,16.58 -22.821,-16.58 8.715,26.83 -22.828,16.59 h 28.215 l 8.719,26.84 8.722,-26.84 h 28.227 v 0"
                 inkscape:connector-curvature="0"
                 transform="matrix(0.33414951,0,0,-0.32919786,70.758327,632.88103)" /><path
                 id="path78"
                 style="fill:#f1d55d;fill-opacity:1;fill-rule:evenodd;stroke:none"
                 d="m 516.75902,1214.4694 -22.828,-16.59 8.726,-26.84 -22.836,16.59 -22.832,-16.59 8.727,26.84 -22.828,16.59 h 28.215 l 8.718,26.84 8.723,-26.84 h 28.215 v 0"
                 inkscape:connector-curvature="0"
                 transform="matrix(0.33414951,0,0,-0.32919786,70.758327,632.88103)" /><path
                 id="path80"
                 style="fill:#f1d55d;fill-opacity:1;fill-rule:evenodd;stroke:none"
                 d="m 360.90002,672.21936 -22.829,-16.59 8.723,-26.83 -22.836,16.58 -22.82,-16.58 8.719,26.83 -22.828,16.59 h 28.214 l 8.715,26.84 8.727,-26.84 h 28.215 v 0"
                 inkscape:connector-curvature="0"
                 transform="matrix(0.33414951,0,0,-0.32919786,70.758327,632.88103)" /><path
                 id="path82"
                 style="fill:#f1d55d;fill-opacity:1;fill-rule:evenodd;stroke:none"
                 d="m 391.03602,494.41136 -22.828,-16.578 8.715,-26.844 -22.828,16.59 -22.824,-16.59 8.718,26.844 -22.824,16.578 h 28.211 l 8.719,26.844 8.726,-26.844 h 28.215 v 0"
                 inkscape:connector-curvature="0"
                 transform="matrix(0.33414951,0,0,-0.32919786,70.758327,632.88103)" /><path
                 id="path84"
                 style="fill:#f1d55d;fill-opacity:1;fill-rule:evenodd;stroke:none"
                 d="m 487.98578,303.92223 -22.828,-16.586 8.719,-26.839 -22.828,16.589 -22.828,-16.589 8.722,26.839 -22.828,16.586 h 28.215 l 8.719,26.84 8.722,-26.84 h 28.215 v 0"
                 inkscape:connector-curvature="0"
                 transform="matrix(0.33414951,0,0,-0.32919786,70.758327,632.88103)" /><path
                 id="path86"
                 style="fill:#f1d55d;fill-opacity:1;fill-rule:evenodd;stroke:none"
                 d="m 585.77878,213.65323 -22.828,-16.59 8.715,-26.84 -22.828,16.586 -22.828,-16.586 8.718,26.84 -22.832,16.582 h 28.219 l 8.723,26.844 8.719,-26.844 28.222,0.008 v 0"
                 inkscape:connector-curvature="0"
                 transform="matrix(0.33414951,0,0,-0.32919786,70.758327,632.88103)" /><path
                 id="path88"
                 style="fill:#f1d55d;fill-opacity:1;fill-rule:evenodd;stroke:none"
                 d="m 740.16682,148.99323 -22.82504,-16.59 8.72204,-26.832 -22.83604,16.586 -22.828,-16.586 8.719,26.832 -22.828,16.59 h 28.223 l 8.714,26.843 8.727,-26.843 h 28.21204 v 0"
                 inkscape:connector-curvature="0"
                 transform="matrix(0.33414951,0,0,-0.32919786,70.758327,632.88103)" /><path
                 id="path90"
                 style="fill:#f1d55d;fill-opacity:1;fill-rule:evenodd;stroke:none"
                 d="m 380.56002,989.47936 -22.828,-16.59 8.714,-26.84 -22.828,16.58 -22.828,-16.58 8.719,26.84 -22.828,16.59 h 28.223 l 8.714,26.83004 8.719,-26.83004 h 28.223 v 0"
                 inkscape:connector-curvature="0"
                 transform="matrix(0.33414951,0,0,-0.32919786,70.758327,632.88103)" /><path
                 id="path92"
                 style="fill:#f1d55d;fill-opacity:1;fill-rule:evenodd;stroke:none"
                 d="m 438.95002,1128.6694 -22.832,-16.58 8.719,-26.84 -22.828,16.58 -22.828,-16.58 8.723,26.84 -22.836,16.58 h 28.222 l 8.719,26.84 8.723,-26.84 h 28.218 v 0"
                 inkscape:connector-curvature="0"
                 transform="matrix(0.33414951,0,0,-0.32919786,70.758327,632.88103)" /><path
                 id="path94"
                 style="fill:#f1d55d;fill-opacity:1;fill-rule:evenodd;stroke:none"
                 d="m 774.80602,1289.7194 22.84,-16.59 -8.72,-26.83 22.83,16.58 22.82,-16.58 -8.72,26.83 22.84,16.59 h -28.22 l -8.72,26.84 -8.72,-26.84 h -28.23 v 0"
                 inkscape:connector-curvature="0"
                 transform="matrix(0.33414951,0,0,-0.32919786,70.758327,632.88103)" /><path
                 id="path96"
                 style="fill:#f1d55d;fill-opacity:1;fill-rule:evenodd;stroke:none"
                 d="m 875.06602,1214.4694 22.83,-16.59 -8.73,-26.84 22.83,16.59 22.83,-16.59 -8.72,26.84 22.83,16.59 h -28.21 l -8.73,26.84 -8.71,-26.84 h -28.22 v 0"
                 inkscape:connector-curvature="0"
                 transform="matrix(0.33414951,0,0,-0.32919786,70.758327,632.88103)" /><path
                 id="path98"
                 style="fill:#f1d55d;fill-opacity:1;fill-rule:evenodd;stroke:none"
                 d="m 1030.916,672.21936 22.83,-16.59 -8.72,-26.83 22.83,16.58 22.83,-16.58 -8.72,26.83 22.83,16.59 h -28.21 l -8.73,26.84 -8.71,-26.84 h -28.23 v 0"
                 inkscape:connector-curvature="0"
                 transform="matrix(0.33414951,0,0,-0.32919786,70.758327,632.88103)" /><path
                 id="path100"
                 style="fill:#f1d55d;fill-opacity:1;fill-rule:evenodd;stroke:none"
                 d="m 1000.786,494.41136 22.83,-16.578 -8.72,-26.844 22.83,16.59 22.83,-16.59 -8.72,26.844 22.83,16.578 h -28.22 l -8.72,26.844 -8.72,-26.844 h -28.22 v 0"
                 inkscape:connector-curvature="0"
                 transform="matrix(0.33414951,0,0,-0.32919786,70.758327,632.88103)" /><path
                 id="path104"
                 style="fill:#f1d55d;fill-opacity:1;fill-rule:evenodd;stroke:none"
                 d="m 820.68682,213.65323 22.83,-16.59 -8.72,-26.84 22.83,16.586 22.83,-16.586 -8.72,26.84 22.83,16.582 h -28.22 l -8.72,26.844 -8.71,-26.844 -28.23,0.008 v 0"
                 inkscape:connector-curvature="0"
                 transform="matrix(0.33414951,0,0,-0.32919786,70.758327,632.88103)" /><path
                 id="path106"
                 style="fill:#f1d55d;fill-opacity:1;fill-rule:evenodd;stroke:none"
                 d="m 1031.016,858.85936 22.83,-16.59 -8.72,-26.83 22.83,16.58 22.83,-16.58 -8.72,26.83 22.83,16.59 h -28.22 l -8.72,26.84 -8.72,-26.84 h -28.22 v 0"
                 inkscape:connector-curvature="0"
                 transform="matrix(0.33414951,0,0,-0.32919786,70.758327,632.88103)" /><path
                 id="path108"
                 style="fill:#f1d55d;fill-opacity:1;fill-rule:evenodd;stroke:none"
                 d="m 1011.266,989.47936 22.83,-16.59 -8.72,-26.84 22.83,16.58 22.83,-16.58 -8.72,26.84 22.83,16.59 h -28.22 l -8.72,26.83004 -8.72,-26.83004 h -28.22 v 0"
                 inkscape:connector-curvature="0"
                 transform="matrix(0.33414951,0,0,-0.32919786,70.758327,632.88103)" /><path
                 id="path110"
                 style="fill:#f1d55d;fill-opacity:1;fill-rule:evenodd;stroke:none"
                 d="m 952.87602,1128.6694 22.83,-16.58 -8.72,-26.84 22.82997,16.58 22.83001,-16.58 -8.73,26.84 22.83,16.58 h -28.21001 l -8.72,26.84 -8.71997,-26.84 h -28.22 v 0"
                 inkscape:connector-curvature="0"
                 transform="matrix(0.33414951,0,0,-0.32919786,70.758327,632.88103)" /><path
                 id="path112"
                 style="fill:#231f20;fill-opacity:1;fill-rule:evenodd;stroke:none"
                 d="m 375.17302,863.10936 -31.711,-23.03 12.117,-37.28 -31.707,23.04 -31.711,-23.04 12.11,37.28 -31.711,23.03 h 39.195 l 12.117,37.27 12.106,-37.27 h 39.195 v 0"
                 inkscape:connector-curvature="0"
                 transform="matrix(0.33414951,0,0,-0.32919786,70.758327,632.88103)" /><path
                 id="path114"
                 style="fill:#f1d55d;fill-opacity:1;fill-rule:evenodd;stroke:none"
                 d="m 360.81002,858.85936 -22.836,-16.59 8.726,-26.83 -22.828,16.58 -22.832,-16.58 8.719,26.83 -22.828,16.59 h 28.219 l 8.722,26.84 8.715,-26.84 h 28.223 v 0"
                 inkscape:connector-curvature="0"
                 transform="matrix(0.33414951,0,0,-0.32919786,70.758327,632.88103)" /><path
                 id="path116"
                 style="fill:#231f20;fill-opacity:1;fill-rule:evenodd;stroke:none"
                 d="m 724.62602,721.77936 -0.62,-0.71 1.68,-0.58 216.85,-289.605 c 0,0 3.39,38.988 17.89,38.426 7.45,-40.684 15.74,-80.789 31.69997,-116.231 l -0.6,-5.683 c -33.91997,29.277 -70.25997,46.316 -109.23997,68.144 12.16,11.07 24.49,9.707 39.83,8.859 l -205.904,273.9 2.629,-450.556 c -0.625,-13.551 -10.348,-14.945 -16.93,-15.492 -8.851,1.106 -14.386,6.641 -14.386,15.492 l -2.082,458.626 -211.204,-281.079 c 15.352,0.848 27.661,2.199 39.836,-8.859 -38.988,-21.828 -75.32,-38.871 -109.242,-68.145 l -0.601,5.676 c 15.953,35.449 24.25,75.555 31.699,116.234 14.504,0.567 17.887,-38.422 17.887,-38.422 l 216.851,289.605 c 25.774,9.33 53.957,0.4 53.957,0.4 v 0"
                 inkscape:connector-curvature="0"
                 transform="matrix(0.33414951,0,0,-0.32919786,70.758327,632.88103)" /><path
                 id="path118"
                 style="fill:#231f20;fill-opacity:1;fill-rule:evenodd;stroke:none"
                 d="m 545.88402,946.43936 139.23,-185.29 -0.066,15.44 2.211,391.69004 c -5.996,-0.33 -25.723,17.73 -1.258,32.34 0,0 -9.433,53.69 -22.047,67.6 18.325,13.58 41.942,89.81 41.942,89.81 0,0 21.61,-64.07 41.43,-91.88 -13.07,-13.6 -23.8,-58.92 -26.7,-68.12 5.49,-5.17 15.68,-19.95 -4.597,-28.64 l -0.075,-392.52004 c 0,0 96.352,130.29 136.192,183.4 l -9.53,43.58004 14.86,19.15 10.22,-41.10004 5.33,7.55 -10.44,39.99004 15.11,18.87 10.66,-39.97 5.11,7.33 -10.34,38.87 15.5,17.7 9.73,-36.58 4.44,5.99 -10.22,38.66 17.07,18.27 10.04,-37.82 10.99,-7.55 h 46.32 l -17.32,-22.22 c -3.33,0 -40.88,-0.22 -40.88,-0.22 l -4.45,-5.78 h 42 c -0.22,-0.88 -16.89,-19.77 -16.89,-19.77 h -40.44 l -4.66,-6.21004 42.95,-0.01 -16.07,-19.77 -41.47,-0.15 -4.52,-6.73 41.05,0.09 -14.17,-20.31 -43.38,0.39 c -45.37,-65.28 -149.358,-205.2 -149.358,-205.2 0,0 -13.524,-3.2 -22.32,-3.32 -9.766,-0.14 -24.813,3.33 -24.813,3.33 -0.875,2.63 -100.527,133.15 -140.297,186.7 -4.633,6.53 -10.086,11.87 -13.961,17.44 l -42.226,0.4 -14.164,20.3 41.043,-0.09 -4.528,6.73 -41.465,0.15 -16.074,19.76 42.961,0.01 -4.668,6.22004 h -40.433 c 0,0 -16.661,18.88 -16.883,19.77 h 41.992 l -4.445,5.78 c 0,0 -37.563,0.22 -40.879,0.22 l -17.332,22.22 h 46.324 l 10.996,7.55 10.027,37.81 17.075,-18.27 -10.215,-38.65 4.441,-6 9.727,36.59 15.492,-17.7 -10.336,-38.87 5.113,-7.34 10.664,39.99 15.11,-18.88 -10.45,-39.99004 5.34,-7.55 10.211,41.09004 14.86,-19.14 -9.52,-43.59004 10.129,-13.55 v 0"
                 inkscape:connector-curvature="0"
                 transform="matrix(0.33414951,0,0,-0.32919786,70.758327,632.88103)" /><path
                 id="path120"
                 style="fill:#dfdcda;fill-opacity:1;fill-rule:evenodd;stroke:none"
                 d="m 737.00602,1265.2494 c -9.97,-19.92 -17.712,-42.05 -23.247,-63.07 0,0 -7.301,2.53 -12.125,2.49 -3.32,-0.03 -8.41,-1.3 -8.41,-1.3 -5.535,23.23 -8.09,44.96 -19.625,64.58 15.285,22.17 25.121,46.9 32.89,73.96 6.641,-28.76 20.547,-51.21 30.517,-76.66 v 0"
                 inkscape:connector-curvature="0"
                 transform="matrix(0.33414951,0,0,-0.32919786,70.758327,632.88103)" /><path
                 id="path120-3"
                 style="fill:#c4c0bd;fill-opacity:1;fill-rule:evenodd;stroke:none"
                 d="m 737.00602,1265.2494 c -9.97,-19.92 -17.712,-42.05 -23.247,-63.07 0,0 -7.301,2.53 -12.125,2.49 l 4.855,137.24 c 6.641,-28.76 20.547,-51.21 30.517,-76.66 v 0"
                 inkscape:connector-curvature="0"
                 sodipodi:nodetypes="ccccsc"
                 transform="matrix(0.33414951,0,0,-0.32919786,70.758327,632.88103)" /><path
                 id="path122"
                 style="fill:#ca8149;fill-opacity:1;fill-rule:evenodd;stroke:none"
                 d="m 709.07102,879.91936 1.297,-109.89 -3.554,-6.44 c 0,0 -5.231,0.83 -8.575,0.58 -3.539,-0.26 -8.875,-2.02 -8.875,-2.02 l 3.86,406.79004 c 6.469,-2.27 10.347,-0.97 15.847,0.32 V 879.91936"
                 inkscape:connector-curvature="0"
                 transform="matrix(0.33414951,0,0,-0.32919786,70.758327,632.88103)" /><path
                 id="path124"
                 style="fill:#ca8149;fill-opacity:1;fill-rule:evenodd;stroke:none"
                 d="m 685.42702,752.95936 h -12.18 l -223.531,296.53004 c 1.105,4.43 5.531,5.53 9.961,6.63 l 225.75,-303.16004 v 0"
                 inkscape:connector-curvature="0"
                 transform="matrix(0.33414951,0,0,-0.32919786,70.758327,632.88103)" /><path
                 id="path126"
                 style="fill:#ca8149;fill-opacity:1;fill-rule:evenodd;stroke:none"
                 d="m 937.07602,1050.5894 -218.235,-297.27004 -15.551,-0.27 c 74.146,99.58 150.256,203.24 226.616,302.82004 l 7.17,-5.28 v 0"
                 inkscape:connector-curvature="0"
                 transform="matrix(0.33414951,0,0,-0.32919786,70.758327,632.88103)" /><path
                 id="path128"
                 style="fill:#dfdcda;fill-opacity:1;fill-rule:evenodd;stroke:none"
                 d="m 681.36802,1186.0694 c 0,6.34 8.59,11.48 19.192,11.48 10.601,0 19.195,-5.14 19.195,-11.48 0,-6.35 -8.594,-11.49 -19.195,-11.49 -10.602,0 -19.192,5.14 -19.192,11.49 v 0"
                 inkscape:connector-curvature="0"
                 transform="matrix(0.33414951,0,0,-0.32919786,70.758327,632.88103)" /><path
                 id="path128-1"
                 style="fill:#c4c0bd;fill-opacity:1;fill-rule:evenodd;stroke:none"
                 d="m 700.56002,1197.5494 c 10.601,0 19.195,-5.14 19.195,-11.48 0,-6.35 -8.594,-11.49 -19.195,-11.49"
                 inkscape:connector-curvature="0"
                 sodipodi:nodetypes="csc"
                 transform="matrix(0.33414951,0,0,-0.32919786,70.758327,632.88103)" /><path
                 id="path130"
                 style="fill:#ca8149;fill-opacity:1;fill-rule:evenodd;stroke:none"
                 d="m 685.43102,715.45936 -222.578,-297.099 c 15.062,2.539 24.082,3.946 41.121,-2.089 -34.637,-20.985 -64.973,-31.426 -92.641,-56.872 l 1.977,5.758 c 13.277,30.985 18.695,62.5 25.332,96.797 3.32,0 5.367,-11.129 7.613,-18.664 2.539,-8.504 4.066,-22.391 4.066,-22.391 l 4.918,5.641 218.106,291.429 c 0,0 15.062,-4.99 24.894,-4.3 1.922,0.13 4.911,0.57 4.911,0.57 l 17.616,3.73 0.34,-0.45 1.06,-0.18 -0.79,-0.19 217.5,-290.609 4.92,-5.641 c 0,0 1.53,13.887 4.06,22.391 2.25,7.535 4.3,18.664 7.62,18.664 6.64,-34.297 12.06,-65.812 25.34,-96.797 l 1.97,-5.758 c -27.66,25.446 -58,35.887 -92.65,56.872 17.05,6.035 26.07,4.628 41.14,2.089 l -220.767,295.879 c 0.832,0.28 -1.195,-0.01 -1.195,-0.01 l 3.683,-469.033 c -2.218,-6.636 -10.64,-8.871 -16.508,-5.644 -2.828,1.558 -3.679,6.328 -3.679,6.328 l -2.719,465.039 -4.66,4.54 v 0"
                 inkscape:connector-curvature="0"
                 transform="matrix(0.33414951,0,0,-0.32919786,70.758327,632.88103)" /><path
                 id="path130-2"
                 style="fill:#f3d761;fill-opacity:1;fill-rule:evenodd;stroke:none"
                 d="m 462.85302,418.36036 c 15.062,2.539 24.082,3.946 41.121,-2.089 -34.637,-20.985 -64.973,-31.426 -92.641,-56.872 l 1.977,5.758 c 13.277,30.985 18.695,62.5 25.332,96.797 3.32,0 5.367,-11.129 7.613,-18.664 2.539,-8.504 4.066,-22.391 4.066,-22.391 l 0.80008,-6.36961"
                 inkscape:connector-curvature="0"
                 sodipodi:nodetypes="cccccccc"
                 transform="matrix(0.33414951,0,0,-0.32919786,70.758327,632.88103)" /><path
                 id="path130-2-2"
                 style="fill:#f6ecdc;fill-opacity:1;fill-rule:evenodd;stroke:none"
                 d="m 411.33302,359.39936 1.977,5.758 c 13.277,30.985 18.695,62.5 25.332,96.797 3.32,0 5.367,-11.129 7.613,-18.664 2.539,-8.504 4.066,-22.391 4.066,-22.391 l 0.80008,-6.36961"
                 inkscape:connector-curvature="0"
                 sodipodi:nodetypes="cccccc"
                 transform="matrix(0.33414951,0,0,-0.32919786,70.758327,632.88103)" /><path
                 id="path130-7"
                 style="fill:#f3d761;fill-opacity:1;fill-rule:evenodd;stroke:none"
                 d="m 942.83932,413.51809 0.9566,7.38127 c 0,0 1.53,13.887 4.06,22.391 2.25,7.535 4.3,18.664 7.62,18.664 6.64,-34.297 12.06,-65.812 25.34,-96.797 l 1.97,-5.758 c -27.6599,25.446 -58,35.887 -92.6499,56.872 17.05,6.035 26.07,4.628 41.1399,2.089"
                 inkscape:connector-curvature="0"
                 sodipodi:nodetypes="cccccccc"
                 transform="matrix(0.33414951,0,0,-0.32919786,70.758327,632.88103)" /><path
                 id="path130-7-0"
                 style="fill:#f6ecdc;fill-opacity:1;fill-rule:evenodd;stroke:none"
                 d="m 942.83932,413.51809 0.9566,7.38127 c 0,0 1.53,13.887 4.06,22.391 2.25,7.535 4.3,18.664 7.62,18.664 6.64,-34.297 12.06,-65.812 25.34,-96.797 l 1.97,-5.758"
                 inkscape:connector-curvature="0"
                 sodipodi:nodetypes="cccccc"
                 transform="matrix(0.33414951,0,0,-0.32919786,70.758327,632.88103)" /><path
                 id="path132"
                 style="fill:#ffffff;fill-opacity:1;fill-rule:evenodd;stroke:none"
                 d="m 673.79402,717.96936 c 0.332,-0.11 0.707,-0.19 1.117,-0.24 l -1.117,0.24 v 0"
                 inkscape:connector-curvature="0"
                 transform="matrix(0.33414951,0,0,-0.32919786,70.758327,632.88103)" /><path
                 id="path134"
                 style="fill:#231f20;fill-opacity:1;fill-rule:evenodd;stroke:none"
                 d="m 678.84902,759.53936 c 22.129,2.11 34.672,4.54 56.877,3.56 38.22,-1.69 66.7,-21.84 95.54,-22.22 27.83,-0.35 41.51,15.3 69.3,17.11 17.83,1.15 45.77,-2.23 45.77,-2.23 l -23.55,-21.54 c 8.89,-4 15.77,-37.56 12.45,-43.09 -28.77,13.27 -60.88,34.7 -94.67,18.2 -2.29,-1.11 -3.47,-1.95 -5.75,-3.1 -42.21,-21.2 -71.22,12.89 -117.022,11.03 -16.976,-0.68 -26.5,-2.06 -43.387,-3.92 -46.441,-5.12 -68.187,-17.67 -118.191,-19.55 -23.559,-0.89 -83.984,6.22 -108.426,20.43 7.559,3.57 37.77,15.56 41.957,20.64 0,0 -3.008,23.05 -8.289,27.16 0,0 51.008,-24.96 84.742,-20.62 34.004,4.37 68.352,13.93 112.649,18.14 v 0"
                 inkscape:connector-curvature="0"
                 transform="matrix(0.33414951,0,0,-0.32919786,70.758327,632.88103)" /><path
                 id="path136"
                 style="fill:#dd4e3b;fill-opacity:1;fill-rule:evenodd;stroke:none"
                 d="m 717.29609,722.21936 c 0,0 5.46883,10.37 4.52903,17.78 -0.8917,7.01 -8.2449,16.88 -8.2449,16.88 33.6986,7.99 87.7095,-20 118.6586,-18.66 25.3992,1.09 36.415,13.45 61.7269,15.1 16.2427,1.06 41.8884,0.18 41.8884,0.18 l -19.2249,-19.78 c 8.5907,-3.67 20.2572,-31.29 17.8172,-36.37 -28.4103,14.66 -63.4466,28.87 -85.4375,19.55 -2.0544,-0.88 -30.4482,-12.84 -32.6622,-12.89 -40.7732,-0.89 -63.9466,18.21 -99.05063,18.21 v 0"
                 inkscape:connector-curvature="0"
                 transform="matrix(0.33414951,0,0,-0.32919786,70.758327,632.88103)" /><path
                 id="path138"
                 style="fill:#dd4e3b;fill-opacity:1;fill-rule:evenodd;stroke:none"
                 d="m 679.29002,753.76936 c 0,0 -5.527,-9.93 -5.773,-16.89 -0.258,-7.18 4.89,-17.76 4.89,-17.76 -3.398,-0.22 -11.16,-2.8 -15.109,-3.11 -40.184,-3.21 -55.543,-14.66 -99.973,-17.33 -21.593,-1.3 -82.718,1.69 -105.156,14.74 6.938,3.25 32.883,13.47 36.727,18.14 0,0 -2.668,16.43 -4.446,22.21 0,0 49.325,-22.21 79.532,-16.44 30.91,5.91 68.601,13.1 109.308,16.44 v 0"
                 inkscape:connector-curvature="0"
                 transform="matrix(0.33414951,0,0,-0.32919786,70.758327,632.88103)" /><path
                 id="path140"
                 style="fill:#dd4e3b;fill-opacity:1;fill-rule:evenodd;stroke:none"
                 d="m 718.84102,738.21936 c -0.496,-6.78 -5.773,-16.44 -5.773,-16.44 0,0 -8.262,-2.93 -13.774,-3.55 -6.562,-0.74 -16.887,0.89 -16.887,0.89 0,0 -5.128,10.58 -4.89,17.76 0.25,7.57 6.664,18.22 6.664,18.22 8.41,3.24 7.113,6.66 28.887,4.44 0,0 6.402,-12.73 5.773,-21.32 v 0"
                 inkscape:connector-curvature="0"
                 transform="matrix(0.33414951,0,0,-0.32919786,70.758327,632.88103)" /><path
                 id="path46-6"
                 style="fill:#231f20;fill-opacity:1;fill-rule:evenodd;stroke:none"
                 d="m 906.36852,301.44218 31.71,-23.035 -12.11,-37.266 31.71,23.035 31.71,-23.043 -12.12,37.274 31.70998,23.035 h -39.17998 l -12.12,37.273 -12.11,-37.273 h -39.2 v 0"
                 inkscape:connector-curvature="0"
                 inkscape:transform-center-x="58.077986"
                 inkscape:transform-center-y="-7.8088048"
                 transform="matrix(0.33414951,0,0,-0.32919786,70.758327,632.88103)" /><path
                 id="path104-7"
                 style="fill:#f1d55d;fill-opacity:1;fill-rule:evenodd;stroke:none"
                 d="m 920.73852,297.20018 22.83,-16.59 -8.72,-26.84 22.83,16.586 22.83,-16.586 -8.72,26.84 22.82997,16.582 h -28.21997 l -8.72,26.844 -8.71,-26.844 -28.23,0.01 v 0"
                 inkscape:connector-curvature="0"
                 inkscape:transform-center-x="58.077319"
                 inkscape:transform-center-y="-7.6726715"
                 transform="matrix(0.33414951,0,0,-0.32919786,70.758327,632.88103)" /><path
                 style="fill:#6f9924;fill-opacity:1;stroke:#2c2c2b;stroke-width:0.267562"
                 id="path8"
                 inkscape:connector-curvature="0"
                 d="m 185.988,141.374 c 3.274,7.145 4.763,13.695 4.466,19.651 2.829,-9.454 10.569,-16.45 20.544,-22.33 -1.49,18.16 -5.956,31.558 -13.398,40.194 8.038,-3.584 16.077,-2.985 24.116,-1.787 -16.376,16.81 -32.751,16.843 -49.126,17.864 -9.676,10.197 -17.119,20.766 -19.65,32.155 4.602,-7.157 14.432,-10.13 25.009,-12.505 -14.461,24.62 -19.758,32.819 -31.261,36.621 -8.812,4.706 -12.966,18.727 -16.971,33.049 0.964,0.935 -1.588,-0.323 2.457,7.592 1.609,-7.323 9.095,-9.438 14.514,-12.951 -5.583,26.125 -15.259,39.969 -26.796,48.232 -3.877,11.013 -7.156,22.324 -6.253,35.728 4.095,-6.55 9.007,-9.825 14.291,-11.611 -2.977,41.457 -9.229,55.897 -16.97,58.057 0.117,11.75 0.767,23.677 4.466,36.621 4.168,-7.071 8.337,-12.281 12.504,-13.398 7.071,36.545 5.136,50.986 -0.893,55.379 3.573,8.634 7.146,17.268 10.719,25.902 0.585,6.702 5.353,12.358 10.718,17.864 0.708,-9.713 2.867,-17.975 7.145,-24.116 10.495,17.343 15.408,35.058 8.039,53.592 4.764,13.249 11.017,24.264 20.544,30.368 2.679,-0.597 2.976,-4.765 0.893,-12.504 4.652,2.529 9.044,6.1 12.505,13.398 0,-5.062 0,-10.123 0,-15.185 20.879,20.352 18.648,31.816 22.33,45.553 3.224,11.036 31.619,24.546 74.135,41.535 -0.893,2.68 -1.786,6.698 -2.68,9.378 -43.135,-16.511 -65.532,-31.425 -77.708,-45.553 -20.817,10.34 -34.488,-2.181 -49.126,-11.612 7.444,-0.298 14.887,-0.596 22.33,-0.893 -8.487,-3.711 -16.824,-8.468 -24.116,-20.544 4.316,2.238 8.781,4.027 14.291,2.68 -7.145,-5.36 -12.504,-12.505 -16.077,-21.437 -10.699,-1.608 -21.079,-0.36 -33.049,-13.398 -3.67,-8.189 -11.382,-10.318 -17.864,-14.291 5.955,-0.896 11.91,-1.494 17.864,0 -5.447,-2.889 -8.566,-8.106 -11.611,-13.398 7.393,0.694 14.594,0.615 23.223,6.252 -8.708,-13.919 -13.323,-28.657 -16.078,-43.766 -16.076,2.971 -30.963,-13.703 -44.6594,-50.019 6.8513,5.225 13.4036,9.104 17.8639,3.573 -1.8984,-5.658 -5.3663,-11.315 -3.5728,-16.971 4.6154,12.28 10.8673,17.193 17.8643,18.757 -5.136,-15.631 -6.178,-29.624 -5.36,-42.873 -15.4804,-13.548 -17.8623,-32.007 -14.2907,-52.699 2.958,3.216 5.5984,5.479 9.8247,12.505 -1.116,-8.188 0.224,-14.739 2.68,-20.544 0.893,2.084 1.786,4.168 2.68,6.253 -0.446,-10.793 1.936,-20.172 6.252,-28.583 -5.7,-13.839 -8.009,-30.808 1.786,-58.951 3.354,6.551 7.979,13.1 6.253,19.651 3.275,-10.421 6.55,-20.842 9.825,-31.262 -7.179,-30.74 -2.341,-31.489 10.718,-61.631 3.877,5.353 8.719,13.534 7.814,23.668 3.946,-12.505 15.929,-22.626 23.446,-30.367 0.075,-12.531 -2.154,-22.855 13.4,-46.893 z" /><path
                 style="fill:#6f9924;fill-opacity:1;stroke:#2c2c2b;stroke-width:0.267562"
                 id="path68-1"
                 inkscape:connector-curvature="0"
                 d="m 148.393,216.598 c -11.181,8.491 -14.636,25.633 -14.501,39.486 15.297,-4.373 22.662,-23.583 24.763,-35.248 0.669,-3.681 1.115,-7.175 1.785,-13.831 -4.277,2.156 -8.367,5.056 -12.047,9.593 z" /><path
                 style="fill:none;stroke:#2c2c2b;stroke-width:0.267562"
                 id="path10"
                 inkscape:connector-curvature="0"
                 d="m 190.11,161.495 c -2.711,14.357 -8.215,23.13 -14.501,30.34 6.396,-6.34 13.758,-10.987 22.532,-13.162" /><path
                 style="fill:#6f9924;fill-opacity:1;stroke:#2c2c2b;stroke-width:0.267562"
                 id="path12"
                 inkscape:connector-curvature="0"
                 d="m 159.77,200.982 1.785,-7.139 -2.677,-0.223 -2.677,11.823 z" /><path
                 style="fill:#6f9924;fill-opacity:1;stroke:#2c2c2b;stroke-width:0.267562"
                 id="path14"
                 inkscape:connector-curvature="0"
                 d="m 127.435,264.879 -1.24,-7.254 -2.54,0.874 2.308,11.901 z" /><path
                 style="fill:#6f9924;fill-opacity:1;stroke:#2c2c2b;stroke-width:0.267562"
                 id="path16"
                 inkscape:connector-curvature="0"
                 d="m 109.072,336.56 -1.24,-7.254 -2.54,0.873 2.308,11.902 z" /><path
                 style="fill:#6f9924;fill-opacity:1;stroke:#2c2c2b;stroke-width:0.267562"
                 id="path18"
                 inkscape:connector-curvature="0"
                 d="m 105.155,425.687 -5.014,-6.385 -1.8838,1.915 7.3748,9.622 z" /><path
                 style="fill:#6f9924;fill-opacity:1;stroke:#2c2c2b;stroke-width:0.267562"
                 id="path20-7"
                 inkscape:connector-curvature="0"
                 d="m 126.392,512.328 -4.777,-3.74 -0.613,2.523 7.09,5.711 z" /><path
                 style="fill:#6f9924;fill-opacity:1;stroke:#2c2c2b;stroke-width:0.267562"
                 id="path22"
                 inkscape:connector-curvature="0"
                 d="m 165.727,586.897 -5.783,-1.836 0.308,2.577 8.638,2.876 z" /><path
                 style="fill:#6f9924;fill-opacity:1;stroke:#2c2c2b;stroke-width:0.267562"
                 id="path24-8"
                 inkscape:connector-curvature="0"
                 d="m 224.691,638.833 -6.067,-0.114 1.029,2.383 9.099,0.298 z" /><path
                 style="fill:#6f9924;fill-opacity:1;stroke:#2c2c2b;stroke-width:0.267562"
                 id="path26-9"
                 inkscape:connector-curvature="0"
                 d="m 161.024,209.082 9.424,-2.441 -0.981,-2.501 -6.884,1.924 z" /><path
                 style="fill:#6f9924;fill-opacity:1;stroke:#2c2c2b;stroke-width:0.267562"
                 id="path28-4"
                 inkscape:connector-curvature="0"
                 d="m 133.746,270.072 9.093,-3.48 -1.255,-2.376 -6.625,2.681 z" /><path
                 style="fill:#6f9924;fill-opacity:1;stroke:#2c2c2b;stroke-width:0.267562"
                 id="path30"
                 inkscape:connector-curvature="0"
                 d="m 115.383,341.752 9.093,-3.479 -1.255,-2.376 -6.626,2.681 z" /><path
                 style="fill:#6f9924;fill-opacity:1;stroke:#2c2c2b;stroke-width:0.267562"
                 id="path32-2"
                 inkscape:connector-curvature="0"
                 d="m 111.559,429.08 7.478,-9.178 -2.183,-1.566 -5.403,6.247 z" /><path
                 style="fill:#6f9924;fill-opacity:1;stroke:#2c2c2b;stroke-width:0.267562"
                 id="path34-4"
                 inkscape:connector-curvature="0"
                 d="m 136.999,510.251 2.38,-9.04 -2.081,-0.413 -1.845,6.255 z" /><path
                 style="fill:#6f9924;fill-opacity:1;stroke:#2c2c2b;stroke-width:0.267562"
                 id="path36-0"
                 inkscape:connector-curvature="0"
                 d="m 172.967,581.688 1.471,-9.232 -2.112,-0.205 -1.214,6.408 z" /><path
                 style="fill:#6f9924;fill-opacity:1;stroke:#2c2c2b;stroke-width:0.267562"
                 id="path38-3"
                 inkscape:connector-curvature="0"
                 d="m 231.123,635.298 0.801,-8.116 -2.111,-0.205 -1.215,6.408 z" /><path
                 style="fill:#e8784d;fill-opacity:1;stroke:#2c2c2b;stroke-width:0.267562"
                 id="path40-8"
                 inkscape:connector-curvature="0"
                 d="m 160.572,187.819 c 2.02,0 3.66,1.749 3.66,3.904 0,2.155 -1.64,3.904 -3.66,3.904 -2.02,0 -3.66,-1.749 -3.66,-3.904 0,-2.155 1.64,-3.904 3.66,-3.904 z" /><path
                 style="fill:#e8784d;fill-opacity:1;stroke:#2c2c2b;stroke-width:0.267562"
                 id="path42-4"
                 inkscape:connector-curvature="0"
                 d="m 121.134,253.478 c 1.514,-1.337 3.901,-1.112 5.328,0.504 1.426,1.615 1.355,4.011 -0.159,5.349 -1.514,1.337 -3.901,1.112 -5.328,-0.504 -1.426,-1.615 -1.355,-4.011 0.159,-5.349 z" /><path
                 style="fill:#e8784d;fill-opacity:1;stroke:#2c2c2b;stroke-width:0.267562"
                 id="path44-5"
                 inkscape:connector-curvature="0"
                 d="m 102.771,325.159 c 1.514,-1.337 3.901,-1.112 5.328,0.503 1.426,1.615 1.355,4.012 -0.159,5.349 -1.514,1.338 -3.901,1.112 -5.328,-0.503 -1.426,-1.615 -1.355,-4.011 0.159,-5.349 z" /><path
                 style="fill:#e8784d;fill-opacity:1;stroke:#2c2c2b;stroke-width:0.267562"
                 id="path46-3"
                 inkscape:connector-curvature="0"
                 d="m 93.7618,417.848 c 0.7585,-1.872 2.9953,-2.735 4.9926,-1.926 1.9976,0.809 3.0026,2.986 2.2446,4.858 -0.759,1.872 -2.9958,2.735 -4.9931,1.926 -1.9972,-0.809 -3.0027,-2.985 -2.2441,-4.858 z" /><path
                 style="fill:#e8784d;fill-opacity:1;stroke:#2c2c2b;stroke-width:0.267562"
                 id="path48"
                 inkscape:connector-curvature="0"
                 d="m 115.516,509.902 c -0.083,-2.018 1.596,-3.729 3.749,-3.818 2.153,-0.089 3.969,1.477 4.053,3.495 0.083,2.019 -1.597,3.73 -3.75,3.819 -2.153,0.089 -3.968,-1.477 -4.052,-3.496 z" /><path
                 style="fill:#e8784d;fill-opacity:1;stroke:#2c2c2b;stroke-width:0.267562"
                 id="path50-7"
                 inkscape:connector-curvature="0"
                 d="m 155.135,587.753 c -0.783,-1.862 0.193,-4.052 2.18,-4.888 1.986,-0.835 4.234,-0.002 5.017,1.86 0.784,1.863 -0.193,4.052 -2.179,4.888 -1.986,0.835 -4.235,0.002 -5.018,-1.86 z" /><path
                 style="fill:#e8784d;fill-opacity:1;stroke:#2c2c2b;stroke-width:0.267562"
                 id="path52-0"
                 inkscape:connector-curvature="0"
                 d="m 213.514,641.364 c -0.783,-1.863 0.193,-4.052 2.179,-4.888 1.987,-0.835 4.235,-0.002 5.018,1.86 0.783,1.862 -0.193,4.052 -2.179,4.888 -1.987,0.835 -4.235,0.002 -5.018,-1.86 z" /><path
                 style="fill:#e8784d;fill-opacity:1;stroke:#2c2c2b;stroke-width:0.267562"
                 id="path54-2"
                 inkscape:connector-curvature="0"
                 d="m 175.42,203.1 c 0.891,1.813 0.045,4.057 -1.888,5.008 -1.934,0.951 -4.227,0.251 -5.119,-1.562 -0.892,-1.813 -0.046,-4.056 1.888,-5.007 1.934,-0.951 4.227,-0.252 5.119,1.561 z" /><path
                 style="fill:#e8784d;fill-opacity:1;stroke:#2c2c2b;stroke-width:0.267562"
                 id="path56-5"
                 inkscape:connector-curvature="0"
                 d="m 145.502,260.679 c 1.868,0.769 2.719,3.01 1.899,5.003 -0.819,1.993 -3.001,2.987 -4.869,2.218 -1.869,-0.768 -2.72,-3.009 -1.9,-5.002 0.819,-1.993 3.001,-2.987 4.87,-2.219 z" /><path
                 style="fill:#e8784d;fill-opacity:1;stroke:#2c2c2b;stroke-width:0.267562"
                 id="path58-8"
                 inkscape:connector-curvature="0"
                 d="m 127.139,332.36 c 1.868,0.769 2.719,3.01 1.899,5.003 -0.819,1.993 -3.001,2.987 -4.87,2.218 -1.868,-0.768 -2.719,-3.01 -1.899,-5.002 0.819,-1.993 3.001,-2.987 4.87,-2.219 z" /><path
                 style="fill:#e8784d;fill-opacity:1;stroke:#2c2c2b;stroke-width:0.267562"
                 id="path60-5"
                 inkscape:connector-curvature="0"
                 d="m 118.783,413.423 c 2.015,-0.146 3.776,1.48 3.932,3.63 0.155,2.149 -1.354,4.012 -3.369,4.157 -2.015,0.146 -3.777,-1.48 -3.932,-3.629 -0.156,-2.15 1.354,-4.013 3.369,-4.158 z" /><path
                 style="fill:#e8784d;fill-opacity:1;stroke:#2c2c2b;stroke-width:0.267562"
                 id="path62-5"
                 inkscape:connector-curvature="0"
                 d="m 136.468,495.527 c 1.774,-0.966 4.051,-0.214 5.081,1.679 1.03,1.893 0.426,4.213 -1.348,5.179 -1.775,0.966 -4.051,0.213 -5.081,-1.679 -1.031,-1.893 -0.426,-4.213 1.348,-5.179 z" /><path
                 style="fill:#e8784d;fill-opacity:1;stroke:#2c2c2b;stroke-width:0.267562"
                 id="path64-0"
                 inkscape:connector-curvature="0"
                 d="m 170.977,567.089 c 1.669,-1.137 4.009,-0.615 5.222,1.166 1.213,1.781 0.843,4.15 -0.827,5.287 -1.67,1.137 -4.01,0.615 -5.223,-1.166 -1.213,-1.781 -0.842,-4.15 0.828,-5.287 z" /><path
                 style="fill:#e8784d;fill-opacity:1;stroke:#2c2c2b;stroke-width:0.267562"
                 id="path66-4"
                 inkscape:connector-curvature="0"
                 d="m 229.355,620.253 c 1.67,-1.137 4.01,-0.614 5.223,1.167 1.213,1.781 0.842,4.15 -0.827,5.287 -1.67,1.137 -4.01,0.614 -5.223,-1.167 -1.213,-1.781 -0.842,-4.149 0.827,-5.287 z" /><path
                 style="fill:none;stroke:#2c2c2b;stroke-width:0.267562"
                 id="path72-0"
                 inkscape:connector-curvature="0"
                 d="m 100.875,368.52 c 5.448,10.047 9.947,20.885 11.824,33.909 -3.886,-16.732 -3.179,-29.225 0.669,-38.817" /><path
                 style="fill:none;stroke:#2c2c2b;stroke-width:0.267562"
                 id="path74-7"
                 inkscape:connector-curvature="0"
                 d="m 107.345,451.731 c 10.895,8.848 18.629,19.928 19.408,35.917" /><path
                 style="fill:none;stroke:#2c2c2b;stroke-width:0.267562"
                 id="path76-7"
                 inkscape:connector-curvature="0"
                 d="m 112.476,454.631 2.677,-9.147" /><path
                 style="fill:none;stroke:#2c2c2b;stroke-width:0.267562"
                 id="path78-0"
                 inkscape:connector-curvature="0"
                 d="m 96.6368,451.508 c 1.4178,17.132 7.4212,32.841 26.1012,44.617" /><path
                 style="fill:none;stroke:#2c2c2b;stroke-width:0.267562"
                 id="path80-0"
                 inkscape:connector-curvature="0"
                 d="m 149.508,531.819 c 7.876,4.336 11.24,14.99 13.162,27.663 -15.69,-3.058 -19.773,-11.274 -24.539,-19.186" /><path
                 style="fill:none;stroke:#2c2c2b;stroke-width:0.267562"
                 id="path82-5"
                 inkscape:connector-curvature="0"
                 d="m 127.423,549.22 c 7.472,11.229 17.362,18.74 32.57,18.07" /><path
                 style="fill:none;stroke:#2c2c2b;stroke-width:0.267562"
                 id="path84-4"
                 inkscape:connector-curvature="0"
                 d="m 176.502,597.63 11.154,0.446 -1.562,-7.362" /><path
                 style="fill:none;stroke:#2c2c2b;stroke-width:0.267562"
                 id="path86-0"
                 inkscape:connector-curvature="0"
                 d="m 186.764,616.369 c 10.113,-1.153 20.226,-1.005 30.34,2.008" /><path
                 style="fill:none;stroke:#2c2c2b;stroke-width:0.267562"
                 id="path88-4"
                 inkscape:connector-curvature="0"
                 d="m 188.548,598.745 c 6.06,3.55 9.704,8.793 9.816,16.508 2.008,-5.614 2.528,-12.53 -0.223,-22.308" /><path
                 style="fill:#6f9924;fill-opacity:1;stroke:#2c2c2b;stroke-width:0.267562"
                 id="path90-9"
                 inkscape:connector-curvature="0"
                 d="m 322.639,680.783 c 29.988,4.314 54.245,15.178 75.898,29.019 6.547,8.782 14.583,14.586 25.894,13.841 -4.836,-17.413 -11.087,-26.342 -18.304,-29.467 -14.454,-2.79 -28.257,-6.883 -41.521,-12.054 -14.915,-6.167 -27.249,-7.173 -39.734,-8.483 -0.744,2.382 -1.489,4.763 -2.233,7.144 z" /><path
                 style="fill:none;stroke:#2c2c2b;stroke-width:0.267562"
                 id="path92-8"
                 inkscape:connector-curvature="0"
                 d="m 399.43,709.802 c -1.042,-6.696 0.297,-12.203 4.018,-16.519" /><path
                 style="fill:#6f9924;fill-opacity:1;stroke:#2c2c2b;stroke-width:0.267562"
                 id="path94-9"
                 inkscape:connector-curvature="0"
                 d="m 429.809,139.588 c -3.274,7.145 -4.763,13.695 -4.466,19.65 -2.829,-9.453 -10.569,-16.45 -20.544,-22.33 1.49,18.16 5.956,31.558 13.398,40.194 -8.038,-3.584 -16.077,-2.984 -24.116,-1.787 16.376,16.81 32.751,16.844 49.126,17.864 9.676,10.198 17.119,20.767 19.65,32.155 -4.602,-7.156 -14.432,-10.129 -25.009,-12.504 14.461,24.619 19.758,32.818 31.261,36.621 8.812,4.705 12.966,18.726 16.971,33.048 -0.964,0.936 1.588,-0.322 -2.457,7.593 -1.609,-7.324 -9.095,-9.439 -14.514,-12.952 5.583,26.125 15.259,39.97 26.796,48.233 3.877,11.012 7.156,22.324 6.253,35.727 -4.095,-6.55 -9.007,-9.825 -14.291,-11.611 2.977,41.457 9.229,55.898 16.97,58.058 -0.117,11.749 -0.767,23.676 -4.466,36.621 -4.168,-7.071 -8.337,-12.282 -12.504,-13.398 -7.071,36.545 -5.136,50.985 0.893,55.378 -3.573,8.634 -7.146,17.268 -10.719,25.903 -0.585,6.701 -5.352,12.357 -10.718,17.864 -0.708,-9.714 -2.867,-17.976 -7.145,-24.117 -10.495,17.343 -15.408,35.058 -8.039,53.592 -4.764,13.249 -11.017,24.264 -20.544,30.369 -2.679,-0.597 -2.976,-4.765 -0.893,-12.505 -4.652,2.529 -9.044,6.1 -12.505,13.398 0,-5.062 0,-10.123 0,-15.184 -20.879,20.352 -18.648,31.815 -22.33,45.553 -3.224,11.035 -31.619,25.884 -74.135,42.873 0.893,2.68 0.448,10.713 1.341,13.393 43.135,-16.51 66.871,-36.779 79.047,-50.907 20.817,10.341 34.488,-2.18 49.126,-11.612 -7.444,-0.298 -14.887,-0.595 -22.33,-0.893 8.487,-3.711 16.824,-8.467 24.116,-20.543 -4.316,2.238 -8.781,4.027 -14.291,2.679 7.145,-5.36 12.504,-12.505 16.077,-21.437 10.699,-1.608 21.079,-0.36 33.049,-13.397 3.67,-8.19 11.382,-10.319 17.864,-14.292 -5.955,-0.896 -11.91,-1.494 -17.864,0 5.447,-2.888 8.566,-8.106 11.611,-13.398 -7.393,0.694 -14.594,0.615 -23.223,6.253 8.708,-13.919 13.323,-28.657 16.078,-43.767 16.076,2.971 30.963,-13.702 44.659,-50.019 -6.851,5.225 -13.403,9.105 -17.864,3.573 1.899,-5.657 5.367,-11.315 3.573,-16.971 -4.615,12.281 -10.867,17.193 -17.864,18.757 5.136,-15.631 6.178,-29.624 5.36,-42.873 15.48,-13.548 17.862,-32.007 14.291,-52.699 -2.958,3.216 -5.599,5.479 -9.825,12.505 1.116,-8.188 -0.224,-14.738 -2.68,-20.544 -0.893,2.084 -1.786,4.169 -2.68,6.253 0.446,-10.793 -1.936,-20.172 -6.252,-28.582 5.7,-13.839 8.009,-30.808 -1.786,-58.951 -3.354,6.55 -7.979,13.099 -6.253,19.65 -3.275,-10.421 -6.55,-20.842 -9.825,-31.262 7.179,-30.739 2.341,-31.489 -10.718,-61.631 -3.877,5.353 -8.719,13.534 -7.814,23.668 -3.946,-12.505 -15.929,-22.626 -23.446,-30.367 -0.075,-12.531 2.154,-22.854 -13.4,-46.892 z" /><path
                 style="fill:#6f9924;fill-opacity:1;fill-rule:evenodd;stroke:#2c2c2b;stroke-width:0.267562"
                 id="path36-0-7"
                 inkscape:connector-curvature="0"
                 d="m 443.27596,581.23461 -1.471,-9.232 2.112,-0.205 1.214,6.408 z" /><path
                 style="fill:#6f9924;fill-opacity:1;stroke:#2c2c2b;stroke-width:0.267562"
                 id="path98-8"
                 inkscape:connector-curvature="0"
                 d="m 456.027,199.195 -1.785,-7.139 2.677,-0.223 2.677,11.824 z" /><path
                 style="fill:#6f9924;fill-opacity:1;stroke:#2c2c2b;stroke-width:0.267562"
                 id="path100-9"
                 inkscape:connector-curvature="0"
                 d="m 488.362,263.092 1.24,-7.253 2.54,0.873 -2.308,11.901 z" /><path
                 style="fill:#6f9924;fill-opacity:1;stroke:#2c2c2b;stroke-width:0.267562"
                 id="path102"
                 inkscape:connector-curvature="0"
                 d="m 506.726,334.773 1.239,-7.253 2.54,0.873 -2.308,11.901 z" /><path
                 style="fill:#6f9924;fill-opacity:1;stroke:#2c2c2b;stroke-width:0.267562"
                 id="path104-2"
                 inkscape:connector-curvature="0"
                 d="m 510.642,423.9 5.014,-6.385 1.884,1.915 -7.375,9.622 z" /><path
                 style="fill:#6f9924;fill-opacity:1;stroke:#2c2c2b;stroke-width:0.267562"
                 id="path106-2"
                 inkscape:connector-curvature="0"
                 d="m 489.405,510.542 4.777,-3.741 0.613,2.523 -7.09,5.711 z" /><path
                 style="fill:#6f9924;fill-opacity:1;stroke:#2c2c2b;stroke-width:0.267562"
                 id="path108-3"
                 inkscape:connector-curvature="0"
                 d="m 450.07,585.11 5.783,-1.836 -0.308,2.577 -8.638,2.876 z" /><path
                 style="fill:#6f9924;fill-opacity:1;stroke:#2c2c2b;stroke-width:0.267562"
                 id="path110-1"
                 inkscape:connector-curvature="0"
                 d="m 391.106,637.046 6.067,-0.114 -1.028,2.384 -9.1,0.297 z" /><path
                 style="fill:#6f9924;fill-opacity:1;stroke:#2c2c2b;stroke-width:0.267562"
                 id="path112-6"
                 inkscape:connector-curvature="0"
                 d="m 454.773,207.296 -9.424,-2.442 0.981,-2.501 6.884,1.924 z" /><path
                 style="fill:#6f9924;fill-opacity:1;stroke:#2c2c2b;stroke-width:0.267562"
                 id="path114-6"
                 inkscape:connector-curvature="0"
                 d="m 482.051,268.285 -9.093,-3.48 1.255,-2.375 6.625,2.681 z" /><path
                 style="fill:#6f9924;fill-opacity:1;stroke:#2c2c2b;stroke-width:0.267562"
                 id="path116-1"
                 inkscape:connector-curvature="0"
                 d="m 500.414,339.966 -9.093,-3.48 1.255,-2.375 6.626,2.681 z" /><path
                 style="fill:#6f9924;fill-opacity:1;stroke:#2c2c2b;stroke-width:0.267562"
                 id="path118-0"
                 inkscape:connector-curvature="0"
                 d="m 504.238,427.294 -7.478,-9.178 2.183,-1.567 5.403,6.248 z" /><path
                 style="fill:#6f9924;fill-opacity:1;stroke:#2c2c2b;stroke-width:0.267562"
                 id="path120-7"
                 inkscape:connector-curvature="0"
                 d="m 478.798,508.464 -2.38,-9.039 2.081,-0.414 1.845,6.256 z" /><path
                 style="fill:#6f9924;fill-opacity:1;stroke:#2c2c2b;stroke-width:0.267562"
                 id="path124-2"
                 inkscape:connector-curvature="0"
                 d="m 384.674,633.512 -0.801,-8.116 2.111,-0.205 1.215,6.408 z" /><path
                 style="fill:#e8784d;fill-opacity:1;stroke:#2c2c2b;stroke-width:0.267562"
                 id="path126-7"
                 inkscape:connector-curvature="0"
                 d="m 455.225,186.033 c -2.02,0 -3.66,1.749 -3.66,3.904 0,2.155 1.64,3.904 3.66,3.904 2.02,0 3.66,-1.749 3.66,-3.904 0,-2.155 -1.64,-3.904 -3.66,-3.904 z" /><path
                 style="fill:#e8784d;fill-opacity:1;stroke:#2c2c2b;stroke-width:0.267562"
                 id="path128-6"
                 inkscape:connector-curvature="0"
                 d="m 494.663,251.692 c -1.514,-1.338 -3.901,-1.112 -5.328,0.503 -1.426,1.615 -1.355,4.011 0.159,5.349 1.514,1.337 3.901,1.112 5.328,-0.503 1.426,-1.615 1.355,-4.012 -0.159,-5.349 z" /><path
                 style="fill:#e8784d;fill-opacity:1;stroke:#2c2c2b;stroke-width:0.267562"
                 id="path130-3"
                 inkscape:connector-curvature="0"
                 d="m 513.026,323.373 c -1.514,-1.338 -3.901,-1.112 -5.328,0.503 -1.426,1.615 -1.355,4.011 0.159,5.349 1.514,1.337 3.901,1.112 5.328,-0.503 1.426,-1.615 1.355,-4.012 -0.159,-5.349 z" /><path
                 style="fill:#e8784d;fill-opacity:1;stroke:#2c2c2b;stroke-width:0.267562"
                 id="path132-8"
                 inkscape:connector-curvature="0"
                 d="m 522.035,416.062 c -0.758,-1.873 -2.995,-2.736 -4.992,-1.927 -1.998,0.809 -3.003,2.986 -2.245,4.858 0.759,1.873 2.996,2.736 4.993,1.927 1.997,-0.809 3.003,-2.986 2.244,-4.858 z" /><path
                 style="fill:#e8784d;fill-opacity:1;stroke:#2c2c2b;stroke-width:0.267562"
                 id="path134-9"
                 inkscape:connector-curvature="0"
                 d="m 500.281,508.116 c 0.083,-2.019 -1.596,-3.73 -3.749,-3.819 -2.153,-0.089 -3.969,1.477 -4.053,3.496 -0.083,2.018 1.597,3.729 3.75,3.818 2.153,0.089 3.968,-1.477 4.052,-3.495 z" /><path
                 style="fill:#e8784d;fill-opacity:1;stroke:#2c2c2b;stroke-width:0.267562"
                 id="path136-8"
                 inkscape:connector-curvature="0"
                 d="m 460.662,585.966 c 0.783,-1.862 -0.193,-4.052 -2.18,-4.887 -1.986,-0.836 -4.234,-0.002 -5.017,1.86 -0.784,1.862 0.193,4.052 2.179,4.887 1.986,0.836 4.235,0.002 5.018,-1.86 z" /><path
                 style="fill:#e8784d;fill-opacity:1;stroke:#2c2c2b;stroke-width:0.267562"
                 id="path138-0"
                 inkscape:connector-curvature="0"
                 d="m 402.283,639.577 c 0.783,-1.862 -0.193,-4.052 -2.179,-4.887 -1.987,-0.836 -4.235,-0.003 -5.018,1.86 -0.783,1.862 0.193,4.051 2.179,4.887 1.987,0.835 4.235,0.002 5.018,-1.86 z" /><path
                 style="fill:#e8784d;fill-opacity:1;stroke:#2c2c2b;stroke-width:0.267562"
                 id="path140-0"
                 inkscape:connector-curvature="0"
                 d="m 440.377,201.314 c -0.891,1.812 -0.045,4.056 1.888,5.007 1.934,0.951 4.227,0.251 5.119,-1.561 0.892,-1.813 0.046,-4.057 -1.888,-5.008 -1.934,-0.951 -4.227,-0.251 -5.119,1.562 z" /><path
                 style="fill:#e8784d;fill-opacity:1;stroke:#2c2c2b;stroke-width:0.267562"
                 id="path142"
                 inkscape:connector-curvature="0"
                 d="m 470.295,258.893 c -1.868,0.768 -2.719,3.01 -1.899,5.002 0.819,1.993 3.001,2.987 4.869,2.219 1.869,-0.769 2.72,-3.01 1.9,-5.003 -0.819,-1.993 -3.001,-2.987 -4.87,-2.218 z" /><path
                 style="fill:#e8784d;fill-opacity:1;stroke:#2c2c2b;stroke-width:0.267562"
                 id="path144"
                 inkscape:connector-curvature="0"
                 d="m 488.658,330.574 c -1.868,0.768 -2.719,3.009 -1.899,5.002 0.819,1.993 3.001,2.987 4.87,2.219 1.868,-0.769 2.719,-3.01 1.899,-5.003 -0.819,-1.993 -3.001,-2.987 -4.87,-2.218 z" /><path
                 style="fill:#e8784d;fill-opacity:1;stroke:#2c2c2b;stroke-width:0.267562"
                 id="path146"
                 inkscape:connector-curvature="0"
                 d="m 497.014,411.636 c -2.015,-0.146 -3.776,1.481 -3.932,3.63 -0.155,2.149 1.354,4.012 3.369,4.158 2.015,0.145 3.777,-1.481 3.932,-3.63 0.156,-2.149 -1.354,-4.012 -3.369,-4.158 z" /><path
                 style="fill:#e8784d;fill-opacity:1;stroke:#2c2c2b;stroke-width:0.267562"
                 id="path148"
                 inkscape:connector-curvature="0"
                 d="m 479.329,493.74 c -1.774,-0.966 -4.051,-0.213 -5.081,1.679 -1.03,1.893 -0.426,4.213 1.348,5.179 1.775,0.966 4.051,0.214 5.081,-1.679 1.031,-1.893 0.426,-4.213 -1.348,-5.179 z" /><path
                 style="fill:#e8784d;fill-opacity:1;stroke:#2c2c2b;stroke-width:0.267562"
                 id="path150"
                 inkscape:connector-curvature="0"
                 d="m 444.82,565.302 c -1.669,-1.137 -4.009,-0.615 -5.222,1.166 -1.213,1.781 -0.843,4.15 0.827,5.287 1.67,1.138 4.01,0.615 5.223,-1.166 1.213,-1.781 0.842,-4.15 -0.828,-5.287 z" /><path
                 style="fill:#e8784d;fill-opacity:1;stroke:#2c2c2b;stroke-width:0.267562"
                 id="path152"
                 inkscape:connector-curvature="0"
                 d="m 386.442,618.467 c -1.67,-1.138 -4.01,-0.615 -5.223,1.166 -1.213,1.781 -0.842,4.15 0.827,5.287 1.67,1.137 4.01,0.615 5.223,-1.166 1.213,-1.781 0.842,-4.15 -0.827,-5.287 z" /><path
                 style="fill:#6f9924;fill-opacity:1;stroke:#2c2c2b;stroke-width:0.267562"
                 id="path154"
                 inkscape:connector-curvature="0"
                 d="m 467.404,214.811 c 11.181,8.492 14.636,25.633 14.501,39.486 -15.297,-4.373 -22.662,-23.583 -24.763,-35.248 -0.669,-3.681 -1.115,-7.175 -1.785,-13.831 4.277,2.157 8.367,5.057 12.047,9.593 z" /><path
                 style="fill:#6f9924;fill-opacity:1;stroke:#2c2c2b;stroke-width:0.267562"
                 id="path156"
                 inkscape:connector-curvature="0"
                 d="m 485.474,268.798 c -5.314,29.255 3.95,44.447 14.501,55.325 0.665,-19.446 -1.482,-40.639 -14.501,-55.325 z" /><path
                 style="fill:#6f9924;fill-opacity:1;stroke:#2c2c2b;stroke-width:0.267562"
                 id="path158"
                 inkscape:connector-curvature="0"
                 d="m 514.922,366.733 c -5.448,10.047 -9.947,20.885 -11.824,33.909 3.886,-16.732 3.179,-29.225 -0.669,-38.817" /><path
                 style="fill:#6f9924;fill-opacity:1;stroke:#2c2c2b;stroke-width:0.267562"
                 id="path160"
                 inkscape:connector-curvature="0"
                 d="m 508.452,449.944 c -10.895,8.848 -18.629,19.928 -19.408,35.917" /><path
                 style="fill:#009240;stroke:#2c2c2b;stroke-width:0.267562"
                 id="path162"
                 inkscape:connector-curvature="0"
                 d="m 503.321,452.844 -2.677,-9.146" /><path
                 style="fill:#6f9924;fill-opacity:1;stroke:#2c2c2b;stroke-width:0.267562"
                 id="path164"
                 inkscape:connector-curvature="0"
                 d="m 519.16,449.721 c -1.418,17.132 -7.421,32.842 -26.101,44.617" /><path
                 style="fill:#6f9924;fill-opacity:1;stroke:#2c2c2b;stroke-width:0.267562"
                 id="path166"
                 inkscape:connector-curvature="0"
                 d="m 466.289,530.032 c -7.876,4.337 -11.24,14.99 -13.162,27.663 15.69,-3.057 19.773,-11.273 24.539,-19.185" /><path
                 style="fill:#6f9924;fill-opacity:1;stroke:#2c2c2b;stroke-width:0.267562"
                 id="path168"
                 inkscape:connector-curvature="0"
                 d="m 488.374,547.433 c -7.472,11.23 -17.362,18.74 -32.57,18.07" /><path
                 style="fill:#6f9924;fill-opacity:1;stroke:#2c2c2b;stroke-width:0.267562"
                 id="path170"
                 inkscape:connector-curvature="0"
                 d="m 439.295,595.843 -11.154,0.446 1.562,-7.362" /><path
                 style="fill:#6f9924;fill-opacity:1;stroke:#2c2c2b;stroke-width:0.267562"
                 id="path172"
                 inkscape:connector-curvature="0"
                 d="m 429.033,614.582 c -10.113,-1.153 -20.226,-1.004 -30.34,2.008" /><path
                 style="fill:#6f9924;fill-opacity:1;stroke:#2c2c2b;stroke-width:0.267562"
                 id="path174"
                 inkscape:connector-curvature="0"
                 d="m 427.249,596.958 c -6.06,3.551 -9.704,8.793 -9.816,16.509 -2.008,-5.615 -2.528,-12.53 0.223,-22.309" /><path
                 style="fill:#6f9924;fill-opacity:1;stroke:#2c2c2b;stroke-width:0.267562"
                 id="path176"
                 inkscape:connector-curvature="0"
                 d="m 294.496,678.996 c -29.988,4.314 -55.583,15.178 -77.236,29.02 -6.547,8.781 -14.583,14.585 -25.894,13.84 4.836,-17.412 11.087,-26.341 18.304,-29.466 14.454,-2.791 28.257,-6.884 41.521,-12.055 14.915,-6.167 29.257,-7.173 41.742,-8.482 0.744,2.381 0.819,4.762 1.563,7.143 z" /><path
                 style="fill:#009240;stroke:#2c2c2b;stroke-width:0.267562"
                 id="path178"
                 inkscape:connector-curvature="0"
                 d="m 216.367,708.016 c 1.042,-6.697 -0.297,-12.203 -4.018,-16.519" /><path
                 style="fill:#94b6f4;fill-opacity:1;stroke:#2c2c2b;stroke-width:0.267562"
                 id="path310"
                 inkscape:connector-curvature="0"
                 d="m 323.407,665.294 c 9.097,-3.94 25.778,-12.118 34.874,-16.058 5.944,-7.011 8.034,-9.254 9.919,-24.52 -0.125,-12.163 -5.811,-16.788 -14.023,-17.986 -28.626,1.179 -30.73,19.22 -85.278,4.625 -16.868,-6.512 -24.7,3.938 -28.426,22.098 2.111,11.226 9.757,16.021 18.951,19.014 9.601,3.083 19.203,6.166 28.805,9.25 13.139,1.713 22.039,1.864 35.178,3.577 z" /><path
                 style="fill:none;stroke:#2c2c2b;stroke-width:0.267562"
                 id="path312"
                 inkscape:connector-curvature="0"
                 d="m 242.368,638.591 c 6.436,-11.859 15.535,-9.273 25.015,-4.625 30.968,12.095 77.66,1.768 100.817,-7.708" /><path
                 style="fill:#ffffff;stroke:#2c2c2b;stroke-width:0.267562"
                 id="path314"
                 inkscape:connector-curvature="0"
                 d="m 242.836,625.23 c 6.886,-1.883 15.767,-1.711 24.548,2.055 18.195,5.98 58.927,9.439 81.419,-4.082 6.065,-3.897 13.914,-3.6 18.639,-3.625 -1.389,-2.913 -1.441,-5.825 -4.169,-8.737 -24.918,-0.08 -32.277,24.724 -95.132,8.737 -10.502,-6.163 -20.138,-3.196 -21.604,-2.056 -1.904,2.272 -3.583,4.842 -3.701,7.708 z" /><path
                 style="fill:#ffffff;stroke:#2c2c2b;stroke-width:0.267562"
                 id="path316"
                 inkscape:connector-curvature="0"
                 d="m 246.947,632.567 c 3.88,5.814 8.125,12.262 22.347,23.198 4.482,1.541 9.187,2.858 13.669,4.399 -7.929,-9.704 -17.482,-19.01 -18.783,-27.854 -10.902,-4.233 -13.21,-1.269 -17.233,0.257 z" /><path
                 style="fill:#94b6f4;fill-opacity:1;stroke:#2c2c2b;stroke-width:0.267562"
                 id="path318"
                 inkscape:connector-curvature="0"
                 d="m 290.832,653.8 c 9.538,-0.745 19.334,-0.373 28.457,1.438 5.805,7.776 5.39,16.137 1.244,27.322 -8.397,2.237 -16.794,2.343 -25.191,0.319 -6.959,-18.148 -7.918,-25.843 -4.51,-29.079 z" /><path
                 style="fill:#ffffff;stroke:#2c2c2b;stroke-width:0.267562"
                 id="path320"
                 inkscape:connector-curvature="0"
                 d="m 302.339,653.64 0.156,30.518 9.641,-0.16 V 654.28 Z" /><path
                 style="fill:#ffffff;stroke:#2c2c2b;stroke-width:0.267562"
                 id="path322"
                 inkscape:connector-curvature="0"
                 d="m 338.075,635.657 c 0.866,7.297 -1.1,16.504 -8.507,26.965 3.157,-1.54 13.898,-6.873 17.054,-8.414 4.556,-6.307 6.044,-11.358 5.156,-22.13 -5.312,1.79 -9.285,1.868 -13.703,3.579 z" /><path
                 style="fill:#94b6f4;fill-opacity:1;stroke:#2c2c2b;stroke-width:0.267562"
                 id="path324"
                 inkscape:connector-curvature="0"
                 d="m 292.231,676.262 c -5.808,2.352 -14.684,2.462 -21.162,17.906 -8.247,21.664 -19.45,32.695 -32.676,36.452 6.172,4.211 13.122,5.49 21.784,0.32 0.108,6.082 -1.242,9.916 -2.801,13.43 24.614,-10.239 26.739,-32.492 30.187,-54.039 1.659,-4.476 4.149,-7.248 7.469,-8.313 -0.934,-1.919 -1.868,-3.837 -2.801,-5.756 z" /><path
                 style="fill:#ffffff;stroke:#2c2c2b;stroke-width:0.267562"
                 id="path326"
                 inkscape:connector-curvature="0"
                 d="m 292.231,676.262 c -6.848,5.682 -14.098,9.842 -18.361,25.261 -6.132,17.67 -14.094,26.569 -22.718,32.295 3.009,-0.853 6.017,-1.705 9.025,-2.558 -0.207,2.878 -0.415,5.755 -0.622,8.633 7.158,-8.046 13.278,-17.959 17.116,-31.975 5.02,-19.055 10.939,-23.322 16.805,-28.458 -0.415,-1.066 -0.83,-2.132 -1.245,-3.198 z" /><path
                 style="fill:#94b6f4;fill-opacity:1;stroke:#2c2c2b;stroke-width:0.267562"
                 id="path328"
                 inkscape:connector-curvature="0"
                 d="m 319.928,682.337 c 3.112,8.847 4.564,17.267 4.356,25.261 3.052,26.157 15.191,34.305 29.876,37.411 -3.891,-4.903 -6.484,-9.806 -6.224,-14.708 6.122,1.5 11.515,0.004 16.805,-1.919 -7.163,-2.652 -13.909,-6.374 -17.739,-17.586 -5.239,-17.294 -14.326,-28.898 -24.544,-35.106 -0.248,1.918 -0.497,4.729 -2.53,6.647 z" /><path
                 style="fill:#ffffff;stroke:#2c2c2b;stroke-width:0.267562"
                 id="path330"
                 inkscape:connector-curvature="0"
                 d="m 322.106,678.181 c -0.104,0.639 -0.207,1.279 -0.311,1.918 4.011,8.286 9.128,16.115 8.713,26.22 1.918,15.296 8.972,24.142 18.361,30.057 -0.207,-2.025 -0.415,-4.05 -0.622,-6.075 2.282,0.319 4.564,0.319 6.846,0.639 -11.025,-6.954 -16.891,-20.988 -19.966,-35.196 -1.647,-7.61 -8.461,-12.499 -13.021,-17.563 z" /><path
                 style="fill:#ffffff;stroke:#2c2c2b;stroke-width:0.267562"
                 id="path332"
                 inkscape:connector-curvature="0"
                 d="m 280.237,638.008 c -0.819,4.982 8.625,10.633 11.377,15.616 9.37,-0.524 17.847,0.143 27.217,2.008 3.978,-0.036 6.358,-6.952 7.362,-18.293 -13.186,2.959 -33.968,0.704 -45.956,0.669 z" /><path
                 style="fill:none;fill-rule:evenodd;stroke:#2c2c2b;stroke-width:0.267562"
                 id="path10-3"
                 inkscape:connector-curvature="0"
                 d="m 425.343,159.238 c 2.711,14.357 9.1,23.816 15.386,31.026 -6.396,-6.34 -13.758,-10.987 -22.532,-13.162"
                 sodipodi:nodetypes="ccc" /></g></g></g></g></g></g></svg>
